<?xml version="1.0" standalone="no"?>
<!DOCTYPE svg PUBLIC "-//W3C//DTD SVG 20010904//EN"
 "http://www.w3.org/TR/2001/REC-SVG-20010904/DTD/svg10.dtd">
<svg version="1.0" xmlns="http://www.w3.org/2000/svg"
 width="512.000000pt" height="512.000000pt" viewBox="0 0 512.000000 512.000000"
 preserveAspectRatio="xMidYMid meet">
<metadata>
Created by potrace 1.11, written by Peter Selinger 2001-2013
</metadata>
<g transform="translate(0.000000,512.000000) scale(0.100000,-0.100000)"
fill="#000000" stroke="none">
<path d="M1369 4790 l-30 -29 3 -753 3 -753 29 -63 c47 -102 130 -164 241
-180 l50 -7 5 -1320 c5 -1263 6 -1322 24 -1355 30 -57 76 -99 133 -120 67 -25
99 -25 165 0 67 25 113 71 138 137 20 53 20 79 20 1354 0 1031 3 1300 13 1303
6 2 38 9 69 16 91 18 178 98 219 200 11 29 14 167 17 767 2 490 -1 746 -8 772
-12 46 -50 67 -100 56 -60 -13 -60 -16 -60 -600 l0 -525 -74 0 c-58 0 -75 3
-80 16 -3 9 -6 253 -6 544 l0 529 -26 20 c-35 28 -69 26 -99 -4 l-25 -24 0
-541 0 -540 -80 0 -80 0 0 538 c-1 567 0 555 -47 580 -32 17 -57 15 -87 -9
l-26 -20 -2 -542 -3 -542 -75 0 -75 0 -5 543 -5 544 -24 19 c-35 28 -77 24
-112 -11z"/>
<path d="M3322 4809 c-139 -27 -253 -150 -281 -304 -8 -40 -11 -439 -11 -1267
l0 -1207 130 -3 130 -3 2 -815 c3 -669 6 -821 17 -850 39 -97 121 -153 225
-154 115 -1 211 74 235 184 15 69 15 4017 1 4109 -36 220 -228 354 -448 310z"/>
</g>
</svg>
