<?xml version="1.0" standalone="no"?>
<!DOCTYPE svg PUBLIC "-//W3C//DTD SVG 20010904//EN"
 "http://www.w3.org/TR/2001/REC-SVG-20010904/DTD/svg10.dtd">
<svg version="1.0" xmlns="http://www.w3.org/2000/svg"
 width="700.000000pt" height="700.000000pt" viewBox="0 0 700.000000 700.000000"
 preserveAspectRatio="xMidYMid meet">
<metadata>
Created by potrace 1.11, written by Peter Selinger 2001-2013
</metadata>
<g transform="translate(0.000000,700.000000) scale(0.100000,-0.100000)"
fill="#000000" stroke="none">
<path d="M3278 5515 c-2 -1 -46 -6 -98 -9 -53 -4 -107 -8 -120 -10 -14 -3 -50
-7 -80 -11 -30 -4 -62 -8 -70 -10 -8 -2 -35 -6 -60 -10 -25 -3 -63 -11 -85
-17 -22 -5 -49 -12 -60 -14 -43 -8 -63 -14 -145 -39 -130 -41 -129 -40 -220
-80 -426 -183 -687 -497 -738 -886 -13 -102 -6 -282 12 -329 5 -11 -10 -28
-46 -55 -29 -22 -86 -72 -125 -111 -138 -136 -159 -247 -63 -328 38 -31 94
-47 171 -48 33 -1 59 -2 59 -3 0 0 -30 -61 -66 -135 -37 -74 -66 -144 -66
-155 0 -49 4 -60 37 -90 21 -20 37 -46 40 -67 22 -125 76 -229 160 -306 l62
-56 -19 -56 c-14 -42 -26 -61 -51 -75 -132 -77 -157 -132 -161 -360 -4 -238
100 -422 294 -520 60 -30 285 -104 360 -119 14 -2 63 -14 110 -25 88 -21 291
-57 376 -66 27 -3 85 -10 129 -15 298 -36 800 -31 1173 10 171 19 186 21 242
30 30 5 75 12 100 15 25 3 56 7 70 10 14 3 41 7 60 10 19 3 103 19 185 35 449
88 657 186 740 349 14 28 25 53 24 56 0 3 2 24 6 48 4 23 9 54 11 69 2 15 15
39 28 52 27 30 27 63 1 151 -10 33 -19 78 -21 100 -5 79 -15 102 -58 146 -37
38 -144 207 -134 213 33 19 105 87 126 119 51 75 64 129 67 277 1 74 -1 171
-6 215 -5 57 -5 82 4 87 6 4 14 5 19 2 13 -9 76 24 92 48 21 33 117 316 121
359 3 28 -4 48 -35 94 -46 70 -129 157 -188 197 -33 23 -40 33 -33 46 25 46
33 252 15 357 -18 103 -21 115 -39 170 -49 143 -169 304 -285 382 -107 72
-280 146 -486 206 -99 29 -219 58 -239 58 -2 0 -19 5 -37 10 -61 17 -307 54
-428 64 -41 3 -93 8 -115 11 -44 6 -511 14 -517 9z m281 -223 c-32 -55 -20
-109 32 -136 42 -23 80 -16 114 20 32 35 35 56 14 103 l-18 41 92 -5 c51 -3
137 -12 191 -20 55 -8 105 -15 113 -15 9 0 13 -14 13 -40 0 -47 30 -85 76 -96
39 -10 96 22 108 61 6 17 11 32 12 33 1 2 29 -2 61 -9 32 -7 63 -13 68 -15 6
-1 54 -14 108 -28 421 -115 603 -262 676 -546 23 -88 24 -297 2 -324 -35 -42
-188 -106 -346 -145 -91 -22 -408 -86 -475 -96 -25 -3 -54 -8 -65 -10 -31 -5
-128 -18 -150 -20 -11 -1 -49 -5 -85 -8 -36 -4 -94 -9 -130 -12 -36 -3 -90 -8
-120 -11 -343 -33 -1119 -38 -1375 -9 -22 3 -65 7 -95 11 -30 3 -71 8 -90 10
-97 11 -212 36 -325 71 -108 35 -151 58 -158 85 -11 42 -4 229 10 297 34 165
108 298 238 426 99 99 195 159 368 233 127 54 333 113 482 136 185 30 183 30
218 0 26 -22 38 -25 71 -21 26 4 47 14 58 29 10 13 22 28 26 33 5 7 70 12 156
14 l147 2 -22 -39z m1724 -1219 c23 -15 54 -37 69 -49 l28 -22 -28 -6 c-15 -3
-40 -8 -57 -12 -49 -10 -266 -13 -315 -4 -25 4 -39 8 -32 9 6 0 13 1 15 0 7
-2 200 72 233 90 22 11 40 20 42 21 1 0 21 -12 45 -27z m-3448 -136 c63 -22
67 -29 41 -72 -23 -37 -25 -38 -87 -40 -43 -2 -84 -11 -124 -29 -33 -14 -71
-26 -84 -26 l-25 0 30 31 c55 60 188 159 204 153 8 -3 29 -11 45 -17z m410
-61 c17 -3 59 -7 95 -11 36 -4 72 -9 80 -10 36 -7 322 -20 522 -24 l46 -1 7
-42 c18 -116 50 -158 117 -158 62 0 103 68 86 144 -5 21 -6 41 -3 44 6 7 24 8
250 16 88 3 196 8 240 11 44 4 114 8 155 9 41 2 109 7 150 11 88 9 87 9 120
-85 25 -72 33 -152 19 -189 -8 -21 -11 -22 -27 -9 -72 61 -301 107 -413 83
-84 -18 -149 -70 -182 -144 -11 -25 -25 -49 -31 -53 -29 -19 -127 18 -188 70
-79 68 -126 79 -183 44 -45 -28 -71 -92 -110 -266 -35 -159 -52 -211 -70 -209
-22 2 -98 185 -116 278 -18 94 -20 109 -24 182 -5 97 -33 150 -95 180 -99 47
-210 -1 -503 -219 -179 -133 -204 -132 -241 10 -17 69 -14 92 26 153 19 30 56
88 82 130 l46 76 57 -9 c32 -4 72 -10 88 -12z m2365 -29 c159 -45 273 -61 445
-61 159 -1 327 8 344 18 4 3 12 1 19 -2 17 -11 -14 -109 -38 -117 -35 -11
-195 -21 -295 -19 -136 4 -200 11 -320 34 -27 6 -59 12 -70 14 -127 25 -402
114 -409 133 -4 9 -4 18 -2 21 3 2 47 10 98 16 82 11 98 10 133 -5 22 -9 65
-23 95 -32z m-21 -312 c79 -19 151 -35 160 -35 45 -1 45 -10 6 -191 -20 -96
-39 -176 -41 -178 -1 -1 -51 29 -109 68 -102 68 -335 191 -362 191 -20 0 -16
9 21 51 31 33 66 117 66 155 0 10 15 8 58 -7 31 -11 122 -35 201 -54z m-1991
-54 c2 -21 5 -48 7 -60 3 -18 -1 -21 -33 -22 -20 0 -67 -2 -104 -4 -38 -1 -68
-1 -68 0 0 10 173 123 191 125 3 0 6 -17 7 -39z m2631 -65 c15 -18 22 -213 10
-287 -17 -109 -94 -176 -263 -230 -56 -18 -106 -34 -113 -37 -9 -3 -9 4 2 25
8 15 17 44 20 63 5 32 20 107 65 318 10 46 20 85 23 88 3 3 42 19 88 35 46 16
85 32 88 34 10 11 69 4 80 -9z m-3449 -22 c0 -8 -9 -14 -20 -14 -18 0 -19 3
-10 20 12 22 30 18 30 -6z m815 -198 c33 -3 61 -5 63 -5 1 -1 2 -6 2 -12 0
-22 77 -175 105 -207 46 -54 101 -84 159 -85 96 -3 164 53 214 177 l28 68 339
3 c187 2 354 5 370 8 17 2 66 8 110 12 44 5 82 9 85 10 3 1 37 5 76 9 71 8 71
8 165 -39 109 -55 291 -173 367 -239 30 -25 61 -46 69 -46 9 0 14 -2 11 -5 -5
-5 -164 -37 -243 -49 -22 -4 -78 -13 -125 -21 -47 -8 -105 -17 -130 -20 -25
-3 -61 -7 -80 -10 -51 -8 -106 -14 -185 -20 -38 -3 -81 -8 -95 -10 -23 -4
-173 -14 -295 -21 -76 -4 -472 -4 -535 0 -97 6 -234 17 -260 21 -14 2 -50 6
-80 10 -30 3 -66 8 -80 10 -14 2 -45 7 -70 10 -206 26 -603 139 -684 194 -74
51 -127 130 -141 211 l-5 27 93 3 c50 1 126 3 167 5 41 1 169 6 285 9 115 4
211 9 213 11 2 2 9 2 15 0 7 -2 39 -6 72 -9z m2529 -610 c36 -71 65 -131 63
-132 -2 -2 -59 12 -127 32 -112 31 -352 91 -437 109 -32 6 -46 22 -20 22 25 0
265 55 342 78 44 13 87 23 97 22 10 -1 41 -51 82 -131z m-2689 -15 c164 -32
277 -50 370 -57 57 -5 73 -10 64 -18 -8 -6 -621 -188 -624 -184 -2 2 -7 70
-10 152 l-7 149 29 -7 c15 -3 96 -19 178 -35z m-595 -142 c24 -12 78 -32 121
-46 43 -13 82 -29 86 -36 3 -6 8 -47 10 -91 1 -45 5 -91 8 -103 8 -33 52 -73
81 -73 14 0 92 21 172 46 330 103 297 96 392 84 47 -7 96 -13 110 -15 14 -2
61 -6 105 -10 44 -4 88 -9 98 -11 9 -1 79 -6 155 -10 263 -14 626 -7 812 16
41 5 95 12 120 14 196 22 271 36 544 103 l189 47 106 -28 c58 -15 150 -41 204
-58 l99 -30 -7 -56 c-10 -90 -47 -144 -129 -193 -80 -47 -278 -105 -496 -145
-14 -2 -59 -11 -100 -19 -41 -8 -122 -21 -180 -30 -58 -9 -116 -18 -130 -20
-14 -2 -52 -7 -85 -11 -33 -3 -67 -8 -76 -9 -9 -2 -52 -6 -95 -10 -43 -4 -95
-9 -114 -11 -174 -17 -632 -23 -810 -10 -173 13 -397 41 -525 66 -55 11 -111
21 -125 24 -46 8 -229 56 -313 82 -188 60 -266 129 -303 269 -18 67 -10 247
13 288 6 11 15 9 63 -14z"/>
<path d="M2844 5244 c-55 -27 -72 -87 -39 -138 38 -58 129 -55 160 4 22 43 18
76 -12 109 -35 36 -69 44 -109 25z"/>
<path d="M3863 5178 c-12 -6 -29 -25 -38 -43 -47 -101 92 -188 159 -101 64 83
-26 190 -121 144z"/>
<path d="M3221 5143 c-44 -41 -46 -96 -5 -137 51 -50 144 -24 159 45 20 91
-86 155 -154 92z"/>
<path d="M4479 5121 c-71 -72 6 -195 98 -156 69 29 85 107 32 156 -42 40 -90
40 -130 0z"/>
<path d="M2510 4909 c-87 -34 -76 -166 15 -183 92 -18 151 85 88 153 -32 33
-67 43 -103 30z"/>
<path d="M3515 4866 c-43 -18 -58 -41 -58 -87 0 -108 155 -132 183 -28 22 81
-50 147 -125 115z"/>
<path d="M760 5132 c-27 -13 -37 -26 -44 -55 -17 -68 -1 -87 170 -214 16 -11
92 -68 170 -126 78 -58 150 -110 162 -116 68 -36 147 21 137 99 -6 43 -14 52
-163 161 -70 51 -129 96 -132 99 -3 3 -27 21 -55 39 -27 19 -52 37 -55 40 -29
32 -129 91 -154 91 -1 0 -17 -8 -36 -18z"/>
<path d="M6094 5135 c-16 -7 -83 -70 -149 -140 -66 -71 -129 -138 -140 -149
-147 -155 -165 -178 -165 -215 1 -62 55 -108 112 -96 34 8 61 34 273 259 174
186 175 186 191 224 13 29 13 37 -2 68 -18 38 -23 42 -63 54 -17 5 -38 3 -57
-5z"/>
<path d="M6240 4497 c-85 -52 -352 -232 -380 -257 -20 -18 -25 -31 -24 -70 0
-39 6 -52 29 -74 50 -46 69 -39 294 110 113 75 212 144 221 153 49 47 38 126
-22 157 -40 20 -57 18 -118 -19z"/>
<path d="M553 4478 c-29 -14 -56 -72 -47 -101 15 -48 36 -65 117 -95 45 -17
145 -53 222 -82 76 -28 152 -52 168 -52 66 -2 114 74 85 136 -18 37 -43 49
-310 145 -172 62 -197 68 -235 49z"/>
<path d="M6469 3826 c-2 -2 -31 -7 -64 -10 -33 -4 -76 -9 -95 -11 -19 -3 -91
-11 -160 -19 -69 -8 -138 -20 -152 -26 -64 -29 -68 -138 -7 -171 23 -12 81
-14 144 -5 56 8 190 24 255 31 30 4 70 8 87 10 101 12 150 107 86 167 -24 22
-84 43 -94 34z"/>
<path d="M887 3734 c-1 -1 -34 -4 -72 -8 -39 -4 -81 -8 -95 -10 -14 -3 -52 -7
-85 -11 -33 -3 -78 -8 -100 -11 -71 -8 -92 -15 -114 -38 -49 -52 -31 -135 34
-156 31 -10 69 -9 165 5 14 2 54 7 90 11 71 7 85 9 180 19 83 9 118 28 136 72
30 71 -21 137 -102 131 -19 -1 -36 -3 -37 -4z"/>
<path d="M1015 3238 c-34 -18 -399 -261 -411 -273 -45 -44 -44 -97 1 -142 28
-28 40 -33 64 -30 32 5 421 260 459 300 56 59 17 157 -63 157 -16 0 -39 -6
-50 -12z"/>
<path d="M5953 3173 c-29 -6 -73 -58 -73 -88 0 -32 17 -69 40 -83 19 -12 90
-39 317 -122 155 -56 182 -58 223 -15 29 31 32 95 7 123 -21 23 -82 48 -382
155 -86 31 -104 35 -132 30z"/>
<path d="M1215 2781 c-17 -7 -81 -72 -265 -271 -18 -19 -65 -70 -105 -112 -78
-82 -93 -118 -68 -165 20 -38 43 -52 87 -53 43 0 53 9 301 275 66 71 130 138
141 150 54 55 59 109 13 154 -31 31 -63 38 -104 22z"/>
<path d="M5672 2694 c-24 -16 -49 -61 -46 -81 1 -7 2 -19 3 -26 1 -18 27 -46
76 -82 22 -16 45 -33 50 -38 6 -4 95 -71 199 -147 167 -124 194 -140 228 -140
68 0 114 68 88 130 -9 22 -83 82 -263 215 -264 196 -283 205 -335 169z"/>
</g>
</svg>
