<?xml version="1.0" standalone="no"?>
<!DOCTYPE svg PUBLIC "-//W3C//DTD SVG 20010904//EN"
 "http://www.w3.org/TR/2001/REC-SVG-20010904/DTD/svg10.dtd">
<svg version="1.0" xmlns="http://www.w3.org/2000/svg"
 width="1024.000000pt" height="1024.000000pt" viewBox="0 0 1024.000000 1024.000000"
 preserveAspectRatio="xMidYMid meet">
<metadata>
Created by potrace 1.11, written by Peter Selinger 2001-2013
</metadata>
<g transform="translate(0.000000,1024.000000) scale(0.100000,-0.100000)"
fill="#000000" stroke="none">
<path d="M2073 9309 c-119 -22 -220 -122 -241 -241 -8 -45 -7 -3134 1 -3178
59 -317 250 -571 519 -689 l73 -32 1 -1852 c0 -1019 3 -1870 7 -1892 8 -55 40
-141 73 -200 45 -81 167 -194 254 -236 126 -61 144 -63 575 -63 l390 1 78 26
c42 15 94 38 115 51 100 63 190 160 240 258 66 132 62 -5 62 2046 l0 1859 73
33 c286 130 472 383 521 710 10 61 7 3143 -3 3176 -34 117 -125 200 -244 223
-132 24 -275 -59 -325 -189 -20 -54 -21 -68 -22 -1065 -1 -555 -3 -1019 -4
-1030 -11 -82 -48 -142 -120 -196 -58 -44 -104 -59 -183 -59 -112 0 -233 87
-270 193 -17 49 -18 115 -19 1082 l-1 1030 -26 55 c-100 209 -360 248 -502 75
-75 -92 -69 -3 -71 -1145 0 -564 -5 -1039 -9 -1055 -5 -17 -9 -32 -10 -35 -7
-31 -46 -88 -82 -119 -61 -54 -108 -74 -183 -79 -124 -7 -234 60 -288 177
l-26 56 -1 1035 -1 1035 -26 55 c-61 130 -192 202 -325 179z"/>
<path d="M6794 9308 c-358 -28 -661 -168 -922 -426 -231 -228 -355 -453 -425
-766 l-22 -101 0 -2000 c0 -1984 0 -2000 20 -2027 11 -14 34 -35 50 -45 28
-17 65 -18 573 -19 298 -1 544 -3 547 -6 3 -2 6 -567 8 -1254 1 -687 6 -1261
10 -1275 44 -161 142 -293 284 -382 53 -33 149 -68 208 -75 28 -3 214 -6 415
-6 355 0 367 1 444 24 163 49 298 167 375 328 59 121 55 -158 55 3982 l0 3815
-26 55 c-27 58 -56 93 -110 133 -68 51 -68 51 -753 51 -352 1 -681 -2 -731 -6z"/>
</g>
</svg>
